name Walk1.mot
datacolumns 19
datarows 10
range 1.30500000 1.31400000
endheader

                time	   L_ground_force_vx	   L_ground_force_vy	   L_ground_force_vz	   L_ground_force_px	   L_ground_force_py	   L_ground_force_pz	   R_ground_force_vx	   R_ground_force_vy	   R_ground_force_vz	   R_ground_force_px	   R_ground_force_py	   R_ground_force_pz	   L_ground_torque_x	   L_ground_torque_y	   L_ground_torque_z	   R_ground_torque_x	   R_ground_torque_y	   R_ground_torque_z	
          1.30500000	         -9.85068591	        145.52010393	        -27.62926860	         -0.01313776	          0.00000000	         -0.02425435	          0.00000000	         -0.00000000	         -0.00000000	          0.00000000	          0.00000000	          0.00000000	          0.00000000	          0.22003090	          0.00000000	          0.00000000	         -0.00000000	          0.00000000	
          1.30600000	        -11.29586381	        157.20572471	        -29.52761970	         -0.02352855	          0.00000000	         -0.02011835	          0.00000000	         -0.00000000	         -0.00000000	          0.00000000	          0.00000000	          0.00000000	          0.00000000	          0.25130298	          0.00000000	          0.00000000	         -0.00000000	          0.00000000	
          1.30700000	        -12.81530605	        169.24816394	        -31.47527102	         -0.03390656	          0.00000000	         -0.01603380	          0.00000000	         -0.00000000	          0.00000000	          0.00000000	          0.00000000	          0.00000000	          0.00000000	          0.28324090	          0.00000000	          0.00000000	         -0.00000000	          0.00000000	
          1.30800000	        -14.40989496	        181.63239014	        -33.46885952	         -0.04424438	          0.00000000	         -0.01201269	          0.00000000	         -0.00000000	          0.00000000	          0.00000000	          0.00000000	          0.00000000	          0.00000000	          0.31579742	          0.00000000	          0.00000000	         -0.00000000	          0.00000000	
          1.30900000	        -16.08031232	        194.34072789	        -35.50453059	         -0.05451406	          0.00000000	         -0.00806679	          0.00000000	          0.00000000	          0.00000000	          0.00000000	          0.00000000	          0.00000000	          0.00000000	          0.34892084	          0.00000000	          0.00000000	         -0.00000000	          0.00000000	
          1.31000000	        -17.82701721	        207.35268001	        -37.57790804	         -0.06468720	          0.00000000	         -0.00420751	          0.00000000	          0.00000000	          0.00000000	          0.00000000	          0.00000000	          0.00000000	          0.00000000	          0.38255484	          0.00000000	          0.00000000	         -0.00000000	          0.00000000	
          1.31100000	        -19.65023178	        220.64479520	        -39.68406673	         -0.07473557	          0.00000000	         -0.00044547	          0.00000000	          0.00000000	          0.00000000	          0.00000000	          0.00000000	          0.00000000	          0.00000000	          0.41663907	          0.00000000	          0.00000000	         -0.00000000	          0.00000000	
          1.31200000	        -21.54993336	        234.19058185	        -41.81750775	         -0.08463235	          0.00000000	          0.00321025	          0.00000000	          0.00000000	          0.00000000	          0.00000000	          0.00000000	          0.00000000	          0.00000000	          0.45111034	          0.00000000	          0.00000000	         -0.00000000	          0.00000000	
          1.31300000	        -23.52584245	        247.96042481	        -43.97213290	         -0.09435284	          0.00000000	          0.00675245	          0.00000000	          0.00000000	          0.00000000	          0.00000000	          0.00000000	          0.00000000	          0.00000000	          0.48590330	          0.00000000	          0.00000000	         -0.00000000	          0.00000000	
          1.31400000	        -25.57740264	        261.92150311	        -46.14121808	         -0.10387469	          0.00000000	          0.01017572	          0.00000000	          0.00000000	          0.00000000	          0.00000000	          0.00000000	          0.00000000	          0.00000000	          0.52094994	          0.00000000	          0.00000000	         -0.00000000	          0.00000000	
